<?xml version="1.0" encoding="utf-8"?>
<!-- Generator: Adobe Illustrator 15.0.0, SVG Export Plug-In . SVG Version: 6.00 Build 0)  -->
<!DOCTYPE svg PUBLIC "-//W3C//DTD SVG 1.1//EN" "http://www.w3.org/Graphics/SVG/1.1/DTD/svg11.dtd">
<svg version="1.1" xmlns="http://www.w3.org/2000/svg" xmlns:xlink="http://www.w3.org/1999/xlink" x="0px" y="0px"
	 width="155.91px" height="255.12px" viewBox="0 0 155.91 255.12" enable-background="new 0 0 155.91 255.12" xml:space="preserve">
<g id="Layer_3">
</g>
<g id="Layer_1">
	<rect x="-9.443" y="-15" fill="#EBDEC3" width="174.996" height="285.909"/>
	<g>
		<g>
			<path fill="#2F3B54" d="M132.438,208.166l-4.821,4.822l-4.822-4.822l0.002,3.064c0.002,4.525-2.514,6.59-6.924,6.638h-0.075
				c-4.452,0-7.157-2.012-7.113-6.639v-0.728l-4.823-4.821l-4.822,4.821c0,2.086,0.18,4.104,0.766,6.115
				c2.083,7.182,8.975,9.405,15.791,9.471v0.002h0.086h0.059h0.058h0.086v-0.002c6.7-0.062,13.696-2.248,15.79-9.47
				C132.484,213.822,132.438,211.034,132.438,208.166L132.438,208.166z M99.039,204.109l4.822-4.82l4.823,4.82l-0.002-3.235
				c0-4.521,2.507-6.584,6.913-6.638v0.001l0.086-0.001c4.452,0,7.156,2.011,7.113,6.64v0.728l4.822,4.821l4.821-4.821
				c0-2.087-0.178-4.104-0.765-6.115c-2.081-7.184-8.976-9.407-15.79-9.472l0,0l-0.086-0.002l-0.058,0.001l-0.059-0.001
				l-0.086,0.001v0.001c-6.814,0.063-13.708,2.288-15.791,9.467C98.978,198.335,99.039,201.185,99.039,204.109L99.039,204.109z"/>
			<path fill="#2F3B54" d="M42.676,192.531c0.005-0.688-0.105-1.329-0.331-1.921c-0.221-0.598-0.568-1.124-1.043-1.578
				c-0.473-0.453-1.082-0.811-1.834-1.063c-0.75-0.259-1.646-0.388-2.702-0.393c-1.05,0.005-1.953,0.134-2.702,0.393
				c-0.753,0.252-1.36,0.609-1.835,1.063c-0.475,0.454-0.821,0.98-1.042,1.578c-0.227,0.592-0.332,1.233-0.332,1.921v6.915
				c0,0.688,0.105,1.325,0.332,1.921c0.22,0.599,0.567,1.124,1.042,1.578c0.475,0.454,1.082,0.81,1.835,1.063
				c0.749,0.259,1.651,0.389,2.702,0.393c1.056-0.004,1.953-0.134,2.702-0.393c0.753-0.253,1.361-0.608,1.834-1.063
				c0.475-0.454,0.822-0.979,1.043-1.578c0.226-0.596,0.336-1.233,0.331-1.921V192.531L42.676,192.531z M32.964,192.579
				c-0.003-1.008,0.312-1.785,0.936-2.324c0.626-0.536,1.583-0.811,2.865-0.813c1.284,0.003,2.241,0.277,2.866,0.813
				c0.629,0.539,0.941,1.316,0.936,2.324v6.818c0.005,1.011-0.306,1.786-0.936,2.326c-0.625,0.535-1.582,0.81-2.866,0.813
				c-1.282-0.004-2.239-0.278-2.865-0.813c-0.625-0.54-0.939-1.315-0.936-2.326V192.579L32.964,192.579z M55.698,195.694
				c0.004-0.765-0.12-1.427-0.359-1.982c-0.243-0.555-0.623-0.985-1.138-1.287c-0.518-0.303-1.189-0.454-2.011-0.458
				c-0.51,0-1.001,0.041-1.471,0.119c-0.466,0.077-0.9,0.175-1.293,0.304c-0.396,0.125-0.73,0.26-1.013,0.411v-5.764l-2.058,0.295
				v16.603c0.345,0.077,0.709,0.147,1.091,0.208c0.38,0.058,0.76,0.107,1.143,0.144c0.38,0.042,0.744,0.07,1.091,0.086
				c0.348,0.021,0.663,0.028,0.941,0.028c1.019-0.004,1.859-0.105,2.522-0.314c0.662-0.208,1.181-0.508,1.554-0.896
				c0.371-0.392,0.633-0.858,0.784-1.406c0.151-0.547,0.22-1.164,0.216-1.847V195.694L55.698,195.694z M48.414,194.688
				c0.274-0.135,0.602-0.273,0.978-0.407c0.375-0.14,0.764-0.258,1.168-0.353c0.405-0.094,0.785-0.142,1.142-0.146
				c0.69,0,1.189,0.15,1.492,0.458c0.306,0.307,0.452,0.769,0.445,1.381v4.39c0.003,0.4-0.034,0.757-0.107,1.075
				s-0.213,0.588-0.417,0.81c-0.204,0.225-0.494,0.397-0.874,0.51c-0.375,0.12-0.866,0.182-1.473,0.182
				c-0.367,0-0.751-0.014-1.148-0.042c-0.396-0.025-0.8-0.069-1.205-0.131V194.688L48.414,194.688z M59.083,192.212v12.582
				c0.003,0.245-0.004,0.452-0.028,0.629c-0.03,0.172-0.099,0.347-0.216,0.527c-0.12,0.184-0.312,0.404-0.583,0.67
				c-0.272,0.268-0.649,0.613-1.134,1.042l1.25,1.447c0.519-0.45,0.943-0.832,1.288-1.149c0.34-0.314,0.609-0.593,0.809-0.825
				c0.201-0.233,0.35-0.458,0.445-0.67c0.097-0.208,0.158-0.437,0.192-0.683c0.028-0.244,0.04-0.531,0.037-0.867v-12.703H59.083
				L59.083,192.212z M61.142,190.3v-2.968h-2.06v2.968H61.142L61.142,190.3z M66.39,199.986v-1.004h7.113v-2.503
				c0.004-0.626-0.067-1.206-0.206-1.749c-0.139-0.544-0.38-1.021-0.714-1.436c-0.336-0.411-0.793-0.74-1.377-0.973
				c-0.58-0.232-1.312-0.352-2.191-0.355c-0.887,0.004-1.631,0.119-2.232,0.347c-0.6,0.229-1.082,0.547-1.44,0.957
				c-0.361,0.404-0.623,0.88-0.778,1.418c-0.16,0.536-0.237,1.117-0.232,1.741v3.581c-0.005,0.675,0.077,1.283,0.244,1.823
				c0.164,0.54,0.429,1.001,0.797,1.382c0.368,0.385,0.855,0.674,1.464,0.878c0.605,0.204,1.349,0.307,2.227,0.307
				c0.503,0,1.006-0.028,1.509-0.085c0.501-0.058,0.985-0.136,1.446-0.237c0.462-0.102,0.883-0.226,1.265-0.364l-0.271-1.643
				c-0.654,0.176-1.296,0.311-1.935,0.411c-0.637,0.099-1.249,0.152-1.841,0.152c-0.581,0-1.056-0.048-1.427-0.147
				c-0.373-0.103-0.662-0.258-0.871-0.47c-0.204-0.212-0.352-0.486-0.429-0.82C66.426,200.861,66.386,200.456,66.39,199.986
				L66.39,199.986z M66.39,196.284c-0.004-0.557,0.079-1.031,0.25-1.416c0.172-0.388,0.45-0.682,0.834-0.882
				c0.385-0.199,0.9-0.304,1.541-0.304c0.642,0,1.145,0.104,1.507,0.304c0.37,0.2,0.626,0.494,0.777,0.882
				c0.151,0.385,0.222,0.859,0.216,1.416v0.979H66.39V196.284L66.39,196.284z M80.763,204.4c0.355,0,0.716-0.02,1.075-0.053
				c0.363-0.032,0.7-0.078,1.015-0.131c0.31-0.058,0.571-0.119,0.779-0.185l-0.195-1.717c-0.466,0.099-0.916,0.167-1.35,0.21
				c-0.435,0.04-0.858,0.062-1.275,0.062c-0.682,0.003-1.226-0.07-1.627-0.222c-0.406-0.151-0.692-0.41-0.867-0.769
				c-0.17-0.359-0.259-0.847-0.253-1.463v-3.899c-0.006-0.616,0.083-1.104,0.253-1.464c0.175-0.36,0.461-0.617,0.867-0.768
				c0.401-0.152,0.945-0.226,1.627-0.221c0.417,0,0.841,0.02,1.275,0.061c0.434,0.042,0.884,0.11,1.35,0.209l0.171-1.716
				c-0.208-0.067-0.467-0.128-0.777-0.186c-0.307-0.053-0.641-0.099-0.996-0.131c-0.36-0.037-0.716-0.053-1.071-0.053
				c-0.929,0-1.701,0.098-2.318,0.29c-0.612,0.196-1.103,0.479-1.46,0.85c-0.355,0.373-0.612,0.826-0.76,1.362
				c-0.151,0.54-0.226,1.152-0.22,1.84v3.752c-0.005,0.686,0.065,1.299,0.204,1.835c0.143,0.54,0.389,0.992,0.739,1.364
				c0.352,0.371,0.839,0.654,1.455,0.851C79.024,204.303,79.81,204.4,80.763,204.4L80.763,204.4z M92.729,202.365
				c-0.375,0.098-0.718,0.172-1.029,0.222c-0.31,0.048-0.604,0.073-0.883,0.073c-0.364,0-0.633-0.05-0.809-0.147
				c-0.177-0.099-0.291-0.245-0.346-0.441c-0.053-0.197-0.075-0.441-0.071-0.736v-7.406h3.212l0.174-1.717h-3.386v-3.237
				l-2.062,0.294v2.943h-2.107v1.717h2.107v7.75c0,0.658,0.106,1.189,0.325,1.59c0.216,0.399,0.542,0.687,0.979,0.866
				c0.441,0.181,0.994,0.269,1.662,0.266c0.447,0,0.88-0.041,1.306-0.118c0.429-0.077,0.826-0.188,1.197-0.322L92.729,202.365
				L92.729,202.365z M37.159,224.822l-4.047-5.836c0.855-0.313,1.476-0.802,1.873-1.469c0.391-0.669,0.583-1.496,0.579-2.48v-2.133
				c0.009-0.958-0.159-1.767-0.501-2.421c-0.345-0.654-0.896-1.151-1.661-1.488c-0.763-0.334-1.775-0.505-3.038-0.505H23.67v16.332
				h3.09v-5.396h2.943l3.752,5.396H37.159L37.159,224.822z M32.473,213.147v1.62c0.005,0.458-0.06,0.835-0.201,1.123
				c-0.137,0.296-0.371,0.512-0.696,0.655c-0.329,0.138-0.774,0.208-1.333,0.208H26.76v-5.543h3.483
				c0.543-0.003,0.98,0.064,1.307,0.196c0.332,0.136,0.564,0.343,0.712,0.629C32.404,212.32,32.479,212.691,32.473,213.147
				L32.473,213.147z M41.94,220.604v-0.613h6.646v-2.55c0.005-0.649-0.056-1.263-0.191-1.838c-0.134-0.579-0.376-1.084-0.716-1.53
				c-0.337-0.445-0.818-0.797-1.43-1.05c-0.612-0.254-1.393-0.386-2.346-0.389c-0.952,0.003-1.749,0.127-2.387,0.371
				c-0.642,0.247-1.147,0.581-1.525,1.011c-0.375,0.43-0.646,0.924-0.804,1.483c-0.164,0.56-0.241,1.156-0.237,1.794v3.164
				c-0.003,0.719,0.086,1.361,0.262,1.93c0.179,0.567,0.461,1.055,0.856,1.451c0.394,0.399,0.913,0.702,1.564,0.91
				c0.644,0.213,1.434,0.32,2.369,0.32c0.479,0,0.969-0.029,1.473-0.082c0.501-0.057,1.001-0.14,1.495-0.253
				c0.494-0.112,0.969-0.255,1.423-0.426l-0.466-2.256c-0.651,0.196-1.275,0.339-1.88,0.428c-0.609,0.092-1.198,0.137-1.775,0.137
				c-0.6,0.003-1.07-0.066-1.409-0.202c-0.339-0.134-0.581-0.351-0.719-0.646C42.002,221.471,41.937,221.083,41.94,220.604
				L41.94,220.604z M41.94,216.998c-0.003-0.38,0.062-0.71,0.188-0.996c0.127-0.287,0.34-0.511,0.63-0.669
				c0.29-0.16,0.683-0.242,1.168-0.247c0.487,0.005,0.864,0.087,1.124,0.247c0.268,0.158,0.447,0.382,0.549,0.669
				c0.102,0.286,0.146,0.616,0.143,0.996v0.59H41.94V216.998L41.94,216.998z M54.275,224.822v-17.241l-2.992,0.418v16.823H54.275
				L54.275,224.822z M67.568,220.359v-3.017c0.004-0.618-0.074-1.21-0.237-1.771c-0.164-0.563-0.438-1.063-0.827-1.504
				c-0.387-0.441-0.92-0.789-1.594-1.042c-0.674-0.258-1.525-0.39-2.542-0.393c-1.019,0.003-1.863,0.135-2.538,0.393
				c-0.674,0.253-1.208,0.601-1.597,1.042c-0.389,0.441-0.664,0.94-0.827,1.504c-0.164,0.561-0.241,1.152-0.235,1.771v3.017
				c-0.005,0.617,0.072,1.209,0.235,1.769c0.164,0.564,0.438,1.064,0.827,1.505c0.389,0.441,0.923,0.789,1.597,1.042
				c0.675,0.258,1.52,0.39,2.538,0.394c1.017-0.004,1.868-0.136,2.542-0.394c0.674-0.253,1.207-0.601,1.594-1.042
				c0.389-0.44,0.663-0.94,0.827-1.505C67.494,221.568,67.572,220.977,67.568,220.359L67.568,220.359z M64.576,217.245v3.212
				c0.004,0.45-0.068,0.829-0.216,1.132c-0.147,0.306-0.383,0.539-0.71,0.695c-0.324,0.155-0.75,0.233-1.281,0.233
				c-0.528,0-0.957-0.078-1.279-0.233c-0.327-0.156-0.564-0.39-0.71-0.695c-0.148-0.303-0.222-0.682-0.218-1.132v-3.212
				c-0.003-0.45,0.07-0.831,0.218-1.133c0.146-0.306,0.383-0.54,0.71-0.695c0.322-0.154,0.751-0.233,1.279-0.233
				c0.531,0,0.957,0.079,1.281,0.233c0.327,0.155,0.563,0.39,0.71,0.695C64.507,216.414,64.58,216.795,64.576,217.245
				L64.576,217.245z M79.315,216.95c0.005-0.747-0.074-1.394-0.232-1.938c-0.156-0.545-0.422-0.993-0.79-1.345
				c-0.367-0.352-0.865-0.609-1.492-0.781c-0.626-0.171-1.407-0.253-2.343-0.253c-0.445,0-0.912,0.025-1.397,0.07
				c-0.487,0.044-0.966,0.109-1.432,0.196c-0.461,0.081-0.887,0.184-1.267,0.299l0.368,2.279c0.531-0.109,1.078-0.199,1.646-0.267
				c0.564-0.067,1.121-0.101,1.664-0.101c0.475,0,0.862,0.027,1.165,0.093c0.299,0.062,0.531,0.165,0.696,0.303
				c0.158,0.144,0.273,0.326,0.334,0.556c0.062,0.23,0.091,0.509,0.086,0.838v1.252h-2.869c-0.811-0.006-1.467,0.105-1.982,0.331
				c-0.515,0.225-0.892,0.584-1.136,1.078s-0.364,1.145-0.364,1.95c0,0.691,0.106,1.304,0.324,1.841
				c0.216,0.53,0.556,0.946,1.013,1.248c0.461,0.308,1.05,0.464,1.779,0.468c0.605,0,1.213-0.087,1.822-0.263
				c0.608-0.171,1.189-0.438,1.732-0.793l0.222,0.81h2.453V216.95L79.315,216.95z M76.323,222.075
				c-0.285,0.164-0.621,0.308-1.01,0.427c-0.385,0.117-0.8,0.182-1.247,0.188c-0.306,0-0.552-0.042-0.727-0.127
				c-0.176-0.086-0.299-0.217-0.368-0.394c-0.074-0.179-0.111-0.403-0.107-0.682c-0.004-0.298,0.033-0.535,0.107-0.708
				c0.072-0.176,0.199-0.295,0.384-0.367c0.183-0.069,0.436-0.106,0.762-0.102h2.206V222.075L76.323,222.075z M82.014,220.923
				c0.005,1.365,0.313,2.395,0.939,3.094c0.62,0.699,1.533,1.048,2.738,1.052c0.75-0.004,1.432-0.119,2.059-0.34
				c0.619-0.225,1.196-0.526,1.719-0.911l0.293,1.005h2.382v-17.241l-2.993,0.418v4.979c-0.315-0.065-0.651-0.127-1.005-0.176
				c-0.36-0.054-0.725-0.095-1.096-0.123c-0.373-0.027-0.732-0.045-1.089-0.045c-0.918,0.003-1.671,0.172-2.255,0.506
				c-0.581,0.332-1.01,0.813-1.284,1.44c-0.274,0.629-0.412,1.385-0.408,2.271V220.923L82.014,220.923z M89.15,221.438
				c-0.217,0.201-0.467,0.381-0.759,0.541c-0.288,0.162-0.598,0.294-0.927,0.392c-0.331,0.094-0.656,0.142-0.987,0.147
				c-0.365,0-0.659-0.059-0.87-0.176c-0.217-0.118-0.373-0.29-0.467-0.515c-0.089-0.227-0.141-0.503-0.135-0.83v-4.219
				c-0.006-0.539,0.11-0.94,0.343-1.201c0.232-0.262,0.617-0.394,1.154-0.394c0.288,0,0.584,0.017,0.894,0.045
				c0.308,0.028,0.608,0.067,0.909,0.114c0.301,0.049,0.584,0.104,0.845,0.16V221.438L89.15,221.438z"/>
		</g>
	</g>
	<g id="Arrow_27">
		<g>
			<polygon fill="#2F3B54" points="104.594,92.888 104.594,80.51 114.736,80.51 78.055,59.268 41.372,80.51 51.505,80.51 
				51.505,92.888 			"/>
		</g>
		<g>
			<path fill="#2F3B54" d="M26.409,243.654c0,2.551-2.048,3.663-3.949,3.663c-2.13,0-3.802-1.368-3.802-3.549
				c0-2.295,1.754-3.648,3.933-3.648C24.869,240.12,26.409,241.56,26.409,243.654z M20.133,243.726c0,1.511,0.983,2.65,2.393,2.65
				c1.376,0,2.409-1.126,2.409-2.679c0-1.169-0.672-2.637-2.376-2.637C20.87,241.061,20.133,242.429,20.133,243.726z"/>
			<path fill="#2F3B54" d="M28.229,237.041h1.426v4.333h0.033c0.508-0.77,1.426-1.254,2.704-1.254c1.983,0,3.359,1.425,3.359,3.506
				c0,2.465-1.803,3.691-3.572,3.691c-1.147,0-2.065-0.386-2.671-1.283h-0.033l-0.082,1.126h-1.229
				c0.033-0.471,0.065-1.169,0.065-1.781V237.041z M29.654,244.396c0,0.156,0.017,0.313,0.065,0.456
				c0.262,0.869,1.114,1.468,2.163,1.468c1.524,0,2.409-1.069,2.409-2.65c0-1.383-0.819-2.565-2.376-2.565
				c-0.967,0-1.885,0.599-2.18,1.539c-0.049,0.156-0.082,0.327-0.082,0.527V244.396z"/>
			<path fill="#2F3B54" d="M35.603,249.184c0.672-0.042,1.229-0.199,1.573-0.541c0.394-0.385,0.557-0.927,0.557-2.58v-5.8h1.442
				v6.284c0,1.34-0.246,2.209-0.951,2.837c-0.639,0.556-1.688,0.783-2.458,0.783L35.603,249.184z M39.339,238.324
				c0,0.413-0.328,0.77-0.917,0.77c-0.524,0-0.869-0.356-0.869-0.77c0-0.428,0.36-0.784,0.901-0.784S39.339,237.896,39.339,238.324z
				"/>
			<path fill="#2F3B54" d="M42.338,243.939c0.033,1.695,1.262,2.395,2.72,2.395c1.032,0,1.671-0.157,2.196-0.356l0.262,0.897
				c-0.508,0.199-1.393,0.442-2.655,0.442c-2.442,0-3.9-1.411-3.9-3.492s1.41-3.705,3.72-3.705c2.606,0,3.278,1.967,3.278,3.234
				c0,0.257-0.017,0.442-0.049,0.585H42.338z M46.566,243.041c0.016-0.783-0.377-2.023-2-2.023c-1.475,0-2.098,1.154-2.212,2.023
				H46.566z"/>
			<path fill="#2F3B54" d="M55.399,246.918c-0.377,0.156-1.212,0.399-2.278,0.399c-2.393,0-3.95-1.411-3.95-3.521
				c0-2.124,1.672-3.677,4.261-3.677c0.852,0,1.606,0.185,1.999,0.37l-0.328,0.955c-0.344-0.157-0.885-0.328-1.671-0.328
				c-1.819,0-2.803,1.184-2.803,2.608c0,1.596,1.18,2.579,2.753,2.579c0.819,0,1.36-0.171,1.77-0.327L55.399,246.918z"/>
			<path fill="#2F3B54" d="M59.037,238.609v1.653h2.065v0.954h-2.065v3.72c0,0.855,0.278,1.34,1.082,1.34
				c0.393,0,0.623-0.028,0.836-0.085l0.065,0.954c-0.279,0.086-0.721,0.172-1.278,0.172c-0.672,0-1.213-0.2-1.557-0.527
				c-0.393-0.385-0.557-0.998-0.557-1.811v-3.763h-1.229v-0.954h1.229v-1.283L59.037,238.609z"/>
			<path fill="#2F3B54" d="M62.724,242.414c0-0.813-0.017-1.511-0.065-2.151h1.262l0.065,1.368h0.049
				c0.36-0.927,1.246-1.511,2.212-1.511c0.147,0,0.262,0.014,0.394,0.028v1.183c-0.148-0.028-0.295-0.028-0.492-0.028
				c-1.016,0-1.737,0.655-1.934,1.596c-0.033,0.172-0.049,0.385-0.049,0.585v3.677h-1.442V242.414z"/>
			<path fill="#2F3B54" d="M68.722,243.939c0.033,1.695,1.262,2.395,2.72,2.395c1.032,0,1.671-0.157,2.196-0.356l0.262,0.897
				c-0.508,0.199-1.393,0.442-2.655,0.442c-2.442,0-3.9-1.411-3.9-3.492s1.41-3.705,3.72-3.705c2.605,0,3.278,1.967,3.278,3.234
				c0,0.257-0.017,0.442-0.049,0.585H68.722z M72.95,243.041c0.016-0.783-0.377-2.023-2-2.023c-1.475,0-2.098,1.154-2.212,2.023
				H72.95z"/>
			<path fill="#2F3B54" d="M76.129,237.041h1.442v10.119h-1.442V237.041z"/>
			<path fill="#2F3B54" d="M87.174,243.654c0,2.551-2.048,3.663-3.949,3.663c-2.131,0-3.802-1.368-3.802-3.549
				c0-2.295,1.753-3.648,3.933-3.648C85.634,240.12,87.174,241.56,87.174,243.654z M80.897,243.726c0,1.511,0.983,2.65,2.393,2.65
				c1.377,0,2.409-1.126,2.409-2.679c0-1.169-0.672-2.637-2.376-2.637C81.635,241.061,80.897,242.429,80.897,243.726z"/>
			<path fill="#2F3B54" d="M94.565,245.507c0,0.599,0.032,1.183,0.114,1.653h-1.295l-0.114-0.869h-0.049
				c-0.443,0.541-1.295,1.026-2.426,1.026c-1.606,0-2.426-0.983-2.426-1.981c0-1.667,1.705-2.579,4.77-2.565v-0.143
				c0-0.556-0.181-1.596-1.803-1.582c-0.754,0-1.524,0.186-2.081,0.514l-0.328-0.841c0.655-0.356,1.622-0.599,2.622-0.599
				c2.426,0,3.016,1.439,3.016,2.808V245.507z M93.172,243.64c-1.573-0.028-3.359,0.214-3.359,1.554
				c0,0.826,0.623,1.197,1.344,1.197c1.049,0,1.721-0.57,1.95-1.154c0.049-0.143,0.065-0.285,0.065-0.399V243.64z"/>
			<path fill="#2F3B54" d="M103.726,237.041v8.338c0,0.612,0.032,1.311,0.065,1.781h-1.278l-0.065-1.197h-0.049
				c-0.427,0.77-1.377,1.354-2.672,1.354c-1.917,0-3.408-1.411-3.408-3.507c-0.017-2.294,1.639-3.69,3.556-3.69
				c1.229,0,2.032,0.498,2.393,1.04h0.033v-4.119H103.726z M102.3,243.07c0-0.157-0.017-0.371-0.065-0.527
				c-0.213-0.784-1-1.439-2.081-1.439c-1.492,0-2.377,1.14-2.377,2.65c0,1.396,0.803,2.551,2.344,2.551
				c0.967,0,1.852-0.569,2.114-1.496c0.049-0.171,0.065-0.342,0.065-0.542V243.07z"/>
			<path fill="#2F3B54" d="M105.627,246.419c0-0.513,0.409-0.897,0.983-0.897c0.573,0,0.967,0.37,0.967,0.897
				c0,0.513-0.394,0.898-1,0.898C106.02,247.317,105.627,246.932,105.627,246.419z"/>
			<path fill="#2F3B54" d="M115.018,246.918c-0.377,0.156-1.213,0.399-2.278,0.399c-2.393,0-3.949-1.411-3.949-3.521
				c0-2.124,1.671-3.677,4.261-3.677c0.852,0,1.605,0.185,1.999,0.37l-0.328,0.955c-0.344-0.157-0.885-0.328-1.671-0.328
				c-1.819,0-2.803,1.184-2.803,2.608c0,1.596,1.18,2.579,2.753,2.579c0.82,0,1.36-0.171,1.771-0.327L115.018,246.918z"/>
			<path fill="#2F3B54" d="M123.784,243.654c0,2.551-2.048,3.663-3.949,3.663c-2.131,0-3.802-1.368-3.802-3.549
				c0-2.295,1.753-3.648,3.933-3.648C122.244,240.12,123.784,241.56,123.784,243.654z M117.508,243.726
				c0,1.511,0.983,2.65,2.393,2.65c1.377,0,2.409-1.126,2.409-2.679c0-1.169-0.672-2.637-2.376-2.637
				C118.245,241.061,117.508,242.429,117.508,243.726z"/>
			<path fill="#2F3B54" d="M125.604,242.129c0-0.727-0.033-1.297-0.065-1.866h1.262l0.065,1.126h0.05
				c0.442-0.656,1.18-1.269,2.507-1.269c1.065,0,1.885,0.569,2.229,1.382h0.033c0.246-0.398,0.573-0.684,0.901-0.897
				c0.475-0.313,0.983-0.484,1.737-0.484c1.064,0,2.622,0.599,2.622,2.992v4.048h-1.41v-3.891c0-1.34-0.573-2.124-1.721-2.124
				c-0.835,0-1.458,0.527-1.721,1.126c-0.065,0.186-0.114,0.399-0.114,0.627v4.262h-1.409v-4.133c0-1.098-0.558-1.882-1.655-1.882
				c-0.885,0-1.557,0.628-1.786,1.255c-0.082,0.171-0.115,0.398-0.115,0.612v4.147h-1.409V242.129z"/>
		</g>
		<g>
			<g>
				<path fill="#890F12" d="M34.089,122.726c0,0.151-0.222,0.251-0.667,0.251c-0.333,0-0.555-0.151-0.666-0.352
					c-1.777-4.072-7.106-10.407-12.214-10.407c-2.776,0-2.998,1.056-2.998,2.363c0,2.464,1.443,4.927,9.66,12.821
					c7.773,7.441,8.661,9.101,8.661,13.072c0,5.329-6.107,6.938-10.215,6.938c-2.998,0-4.886-0.553-6.218-0.955
					c-1.221-0.353-1.888-0.503-2.221-0.503c-0.444,0-1.333,0.352-3.553,1.106c-0.444,0.15-0.888,0.352-1.333,0.352
					s-0.555-0.101-0.555-0.251V134.49c0-0.15,0.111-0.352,0.555-0.352c0.333,0,0.555,0.201,0.666,0.352
					c1.999,4.023,5.441,10.408,11.992,10.408c2.11,0,3.22-1.057,3.22-2.615c0-3.368-3.331-7.038-9.66-13.072
					c-5.996-5.731-8.217-9.552-8.217-13.222c0-4.777,4.552-6.285,10.215-6.285c2.11,0,4.553,0.553,6.218,1.157
					c0.555,0.151,1.221,0.302,1.666,0.302s1.555-0.352,2.554-0.805c1-0.402,1.666-0.654,2.332-0.654
					c0.555,0,0.777,0.251,0.777,0.553V122.726z"/>
				<path fill="#890F12" d="M53.519,143.792c0,0.604,0.222,1.056,0.999,1.407l3.332,1.459c0.222,0.15,0.777,0.302,0.777,0.452
					c0,0.151-0.222,0.302-0.667,0.302H40.527c-0.444,0-0.666-0.15-0.666-0.302c0-0.15,0.555-0.302,0.777-0.452l3.331-1.459
					c0.777-0.352,1-0.804,1-1.407v-30.468c0-0.603-0.222-1.056-1-1.408l-3.331-1.458c-0.222-0.151-0.777-0.302-0.777-0.453
					s0.222-0.302,0.666-0.302h13.88c11.548,0,17.544,2.766,17.544,9.302c0,5.581-4.331,7.843-8.217,8.949
					c3.775,0.905,7.106,2.866,7.106,5.631v10.508c0,0.352,0.444,0.654,1,0.905l3.553,1.709c0.444,0.201,0.888,0.402,0.888,0.554
					c0,0.15-0.555,0.15-1.11,0.15h-5.774c-5.108,0-7.106-1.508-7.106-3.218v-10.81c0-2.213-2.998-3.871-6.884-3.871h-1.888V143.792z
					 M53.519,127h1.666c5.441,0,7.662-1.961,7.662-7.994c0-5.128-2.221-6.788-7.662-6.788h-1.666V127z"/>
				<path fill="#890F12" d="M80.277,113.324c0-0.603-0.223-1.106-0.889-1.408l-3.442-1.458c-0.333-0.151-0.555-0.302-0.555-0.453
					s0.222-0.302,0.666-0.302h16.989c0.443,0,0.666,0.151,0.666,0.302s-0.223,0.302-0.555,0.453l-3.443,1.458
					c-0.555,0.302-0.889,0.805-0.889,1.408v27.351c0,2.212,0.445,4.224,5.664,4.224c4.107,0,5.219-2.012,5.219-4.224v-27.351
					c0-0.603-0.223-1.106-0.889-1.408l-3.441-1.458c-0.334-0.151-0.557-0.302-0.557-0.453s0.223-0.302,0.668-0.302h15.211
					c0.445,0,0.666,0.151,0.666,0.302s-0.221,0.302-0.555,0.453l-3.441,1.458c-0.557,0.302-0.889,0.805-0.889,1.408v28.659
					c0,3.117-5.33,5.43-12.881,5.43c-8.771,0-13.324-2.313-13.324-5.43V113.324z"/>
				<path fill="#890F12" d="M135.236,131.373c0-0.502-0.443-0.805-1.221-1.105l-3.109-1.207c-0.443-0.201-0.555-0.301-0.555-0.502
					s0.334-0.302,0.889-0.302h16.434c0.443,0,0.777,0.101,0.777,0.302s-0.223,0.302-0.555,0.502l-3.221,1.207
					c-0.777,0.251-1.111,0.604-1.111,1.105v15.788c0,0.15-0.221,0.251-0.555,0.251c-0.443,0-0.889-0.101-1.109-0.201l-3.332-1.357
					c-0.443-0.15-0.666-0.201-1.111-0.201c-0.332,0-0.666,0.051-1.109,0.201c-2.332,0.955-4.553,1.559-6.996,1.559
					c-13.879,0-14.434-11.463-14.434-19.86c0-6.184,0.555-17.849,14.213-17.849c3.664,0,5.885,0.754,6.994,1.157
					c0.445,0.151,1.223,0.302,1.666,0.302c0.555,0,1.666-0.352,2.775-0.805c1-0.402,1.666-0.654,2.221-0.654
					c0.557,0,0.777,0.352,0.777,0.855v12.066c0,0.201-0.221,0.352-0.555,0.352c-0.443,0-0.777-0.201-1-0.502
					c-2.332-3.771-7.105-10.257-11.992-10.257c-4.662,0-5.996,4.776-5.996,15.385c0,14.479,1.334,17.296,5.33,17.296
					c3.443,0,5.885-1.91,5.885-6.688V131.373z"/>
			</g>
		</g>
		<g>
			<g>
				<path fill="#890F12" d="M12.273,154.643c0-0.124-0.125-0.249-0.438-0.298l-2.813-0.621c-0.188-0.05-0.313-0.1-0.313-0.174
					s0.25-0.148,0.625-0.198c2.5-0.323,4.938-1.043,5.875-1.539c0.188-0.1,0.313-0.174,0.563-0.174h0.75
					c0.188,0,0.313,0.074,0.313,0.124c0,0.596-0.188,1.514-0.188,2.706v14.002c0,0.298,0.125,0.521,0.563,0.694l1.875,0.721
					c0.188,0.074,0.438,0.148,0.438,0.223c0,0.075-0.063,0.149-0.375,0.149H9.773c-0.25,0-0.375-0.074-0.375-0.149
					c0-0.074,0.25-0.148,0.438-0.223l1.875-0.721c0.438-0.174,0.563-0.396,0.563-0.694V154.643z"/>
				<path fill="#890F12" d="M37.898,160.725c0,5.958-1.5,9.533-7.563,9.533c-6.125,0-7-3.028-7-4.667c0-0.174,0.188-0.273,0.5-0.273
					c0.25,0,0.5,0.1,0.625,0.273c1.063,1.514,2.125,3.426,5.625,3.426c2.938,0,3.188-2.78,3.188-6.058h-0.125
					c-0.813,0.422-2.125,0.819-3.5,0.819c-4.625,0-7.438-2.408-7.438-5.983c0-2.979,2.063-6.156,7.813-6.156
					C35.585,151.639,37.898,154.071,37.898,160.725z M26.835,157.646c0,3.128,0.625,4.891,3.188,4.891
					c2.625,0,3.25-1.713,3.25-4.146c0-3.773-0.875-5.511-3.25-5.511C27.71,152.88,26.835,154.617,26.835,157.646z"/>
				<path fill="#890F12" d="M44.961,169.017c0,0.596-0.625,1.241-2.313,1.241c-1.625,0-2.25-0.646-2.25-1.241
					c0-0.621,0.625-1.267,2.25-1.267C44.336,167.75,44.961,168.396,44.961,169.017z"/>
				<path fill="#890F12" d="M63.148,159.955c0,6.008-1.563,10.303-7.813,10.303c-6.313,0-7.875-4.295-7.875-10.303
					c0-4.021,1.563-8.316,7.875-8.316C61.585,151.639,63.148,155.934,63.148,159.955z M58.523,159.881
					c0-5.264-0.875-7.001-3.188-7.001c-2.375,0-3.25,1.737-3.25,7.001c0,7.397,0.875,9.136,3.25,9.136
					C57.648,169.017,58.523,167.278,58.523,159.881z"/>
				<path fill="#890F12" d="M66.273,170.258c-0.375,0-0.375-0.149-0.125-0.348l1.25-0.894c-0.063-0.372-0.188-0.844-0.188-1.341
					c0-1.291,1.125-2.954,3.625-4.767c2.5-1.787,4.5-4.295,4.5-7.323c0-1.986-0.563-2.706-2.813-2.706
					c-3.125,0-5.563,2.532-5.75,2.78c-0.125,0.174-0.313,0.248-0.75,0.248c-0.313,0-0.438-0.124-0.375-0.322
					c0.688-2.185,4.125-3.947,8.063-3.947c3.875,0,6.25,1.39,6.25,4.071c0,3.624-3.125,6.281-5.938,8.068
					c-2.063,1.315-3.063,2.557-3.063,3.649c0,0.521,0.125,0.993,0.75,1.241h4.75c0.438,0,0.688-0.149,0.875-0.348l1.937-2.036
					c0.125-0.148,0.375-0.298,0.563-0.298c0.25,0,0.313,0.1,0.313,0.224l-0.688,3.823c0,0.124-0.25,0.224-0.562,0.224H66.273z"/>
				<path fill="#890F12" d="M86.961,169.017c0,0.596-0.625,1.241-2.313,1.241c-1.625,0-2.25-0.646-2.25-1.241
					c0-0.621,0.625-1.267,2.25-1.267C86.336,167.75,86.961,168.396,86.961,169.017z"/>
				<path fill="#890F12" d="M89.086,170.258c-0.375,0-0.375-0.149-0.125-0.348l1.25-0.894c-0.063-0.372-0.188-0.844-0.188-1.341
					c0-1.291,1.125-2.954,3.625-4.767c2.5-1.787,4.5-4.295,4.5-7.323c0-1.986-0.563-2.706-2.813-2.706
					c-3.125,0-5.563,2.532-5.75,2.78c-0.125,0.174-0.313,0.248-0.75,0.248c-0.313,0-0.438-0.124-0.375-0.322
					c0.688-2.185,4.125-3.947,8.063-3.947c3.875,0,6.25,1.39,6.25,4.071c0,3.624-3.125,6.281-5.938,8.068
					c-2.063,1.315-3.063,2.557-3.063,3.649c0,0.521,0.125,0.993,0.75,1.241h4.75c0.438,0,0.688-0.149,0.875-0.348l1.938-2.036
					c0.125-0.148,0.375-0.298,0.563-0.298c0.25,0,0.313,0.1,0.313,0.224l-0.688,3.823c0,0.124-0.25,0.224-0.563,0.224H89.086z"/>
				<path fill="#890F12" d="M121.898,159.955c0,6.008-1.563,10.303-7.813,10.303c-6.313,0-7.875-4.295-7.875-10.303
					c0-4.021,1.563-8.316,7.875-8.316C120.336,151.639,121.898,155.934,121.898,159.955z M117.273,159.881
					c0-5.264-0.875-7.001-3.188-7.001c-2.375,0-3.25,1.737-3.25,7.001c0,7.397,0.875,9.136,3.25,9.136
					C116.398,169.017,117.273,167.278,117.273,159.881z"/>
				<path fill="#890F12" d="M127.461,154.643c0-0.124-0.125-0.249-0.438-0.298l-2.813-0.621c-0.188-0.05-0.313-0.1-0.313-0.174
					s0.25-0.148,0.625-0.198c2.5-0.323,4.938-1.043,5.875-1.539c0.188-0.1,0.313-0.174,0.563-0.174h0.75
					c0.188,0,0.313,0.074,0.313,0.124c0,0.596-0.188,1.514-0.188,2.706v14.002c0,0.298,0.125,0.521,0.563,0.694l1.875,0.721
					c0.188,0.074,0.438,0.148,0.438,0.223c0,0.075-0.063,0.149-0.375,0.149h-9.375c-0.25,0-0.375-0.074-0.375-0.149
					c0-0.074,0.25-0.148,0.438-0.223l1.875-0.721c0.438-0.174,0.563-0.396,0.563-0.694V154.643z"/>
				<path fill="#890F12" d="M139.461,154.643c0-0.124-0.125-0.249-0.438-0.298l-2.813-0.621c-0.188-0.05-0.313-0.1-0.313-0.174
					s0.25-0.148,0.625-0.198c2.5-0.323,4.938-1.043,5.875-1.539c0.188-0.1,0.313-0.174,0.563-0.174h0.75
					c0.188,0,0.313,0.074,0.313,0.124c0,0.596-0.188,1.514-0.188,2.706v14.002c0,0.298,0.125,0.521,0.563,0.694l1.875,0.721
					c0.188,0.074,0.438,0.148,0.438,0.223c0,0.075-0.063,0.149-0.375,0.149h-9.375c-0.25,0-0.375-0.074-0.375-0.149
					c0-0.074,0.25-0.148,0.438-0.223l1.875-0.721c0.438-0.174,0.563-0.396,0.563-0.694V154.643z"/>
			</g>
		</g>
		<g>
			<g>
				
					<line fill="none" stroke="#2F3B54" stroke-width="0.8223" stroke-miterlimit="10" x1="-12.391" y1="51.747" x2="-7.457" y2="51.747"/>
				
					<line fill="none" stroke="#2F3B54" stroke-width="0.8223" stroke-miterlimit="10" stroke-dasharray="10.0602,10.0602" x1="2.603" y1="51.747" x2="158.536" y2="51.747"/>
				
					<line fill="none" stroke="#2F3B54" stroke-width="0.8223" stroke-miterlimit="10" x1="163.566" y1="51.747" x2="168.5" y2="51.747"/>
			</g>
		</g>
		<g>
			<path d="M20.671,15.408c0-0.443-0.073-0.776-0.656-1.035l-2.186-1.036c-0.292-0.111-0.51-0.259-0.51-0.407
				c0-0.074,0.146-0.185,0.364-0.185h11.587c0.219,0,0.364,0.111,0.364,0.185c0,0.148-0.219,0.296-0.437,0.407l-2.259,1.036
				c-0.51,0.259-0.656,0.592-0.656,1.035v10.764h0.146l7.142-10.875c0.292-0.407,0.146-0.74-0.438-0.999l-2.259-0.962
				c-0.292-0.147-0.51-0.259-0.51-0.407c0-0.111,0.218-0.185,0.51-0.185h10.64c0.292,0,0.51,0.074,0.51,0.185
				c0,0.148-0.292,0.296-0.583,0.444l-2.478,1.258c-0.656,0.333-1.166,0.813-1.603,1.517l-5.612,8.581l6.34,13.02
				c0.219,0.37,0.51,0.703,0.948,0.888l2.478,1.22c0.292,0.148,0.51,0.296,0.51,0.444s-0.073,0.185-0.365,0.185H30.801
				c-0.292,0-0.437-0.037-0.437-0.185c0-0.111,0.292-0.222,0.583-0.407l1.895-1.294c0.438-0.333,0.438-0.629,0.219-0.999
				l-4.081-8.47h-0.146l-2.55,3.958v4.734c0,0.444,0.146,0.777,0.656,1.036l2.259,1.036c0.218,0.111,0.437,0.259,0.437,0.407
				c0,0.074-0.146,0.185-0.364,0.185H17.684c-0.218,0-0.364-0.111-0.364-0.185c0-0.148,0.219-0.296,0.437-0.407l2.259-1.036
				c0.51-0.259,0.656-0.592,0.656-1.036V15.408z"/>
			<path d="M45.811,15.408c0-0.443-0.146-0.813-0.583-1.035L42.969,13.3c-0.218-0.111-0.364-0.222-0.364-0.333
				s0.146-0.222,0.437-0.222h11.15c0.292,0,0.437,0.111,0.437,0.222s-0.146,0.222-0.364,0.333l-2.259,1.073
				c-0.364,0.222-0.583,0.592-0.583,1.035v20.121c0,1.628,0.292,3.107,3.717,3.107c2.696,0,3.425-1.479,3.425-3.107V15.408
				c0-0.443-0.146-0.813-0.583-1.035L55.722,13.3c-0.219-0.111-0.364-0.222-0.364-0.333s0.146-0.222,0.437-0.222h9.984
				c0.292,0,0.438,0.111,0.438,0.222s-0.146,0.222-0.364,0.333l-2.259,1.073c-0.365,0.222-0.584,0.592-0.584,1.035v21.083
				c0,2.293-3.498,3.995-8.453,3.995c-5.757,0-8.745-1.702-8.745-3.995V15.408z"/>
			<path d="M70.731,15.408c0-0.443-0.146-0.776-0.655-1.035L67.889,13.3c-0.146-0.111-0.511-0.222-0.511-0.333
				s0.146-0.222,0.438-0.222h11.005c5.684,0,9.62,1.517,9.62,7.176c0,4.771-3.061,7.656-9.62,7.656h-2.479v10.246
				c0,0.444,0.073,0.814,0.656,1.036l2.697,1.073c0.219,0.111,0.51,0.222,0.51,0.333c0,0.111-0.146,0.222-0.437,0.222H67.816
				c-0.291,0-0.438-0.111-0.438-0.222c0-0.111,0.365-0.185,0.511-0.333l2.187-1.073c0.51-0.259,0.655-0.592,0.655-1.036V15.408z
				 M76.342,25.728h2.114c3.061,0,4.008-1.702,4.008-5.807s-0.947-5.326-4.008-5.326h-2.114V25.728z"/>
			<path d="M111.686,25.876c0,6.99-0.947,14.61-9.765,14.61c-8.745,0-9.692-7.62-9.692-14.61c0-5.326,0.947-13.131,9.692-13.131
				C110.738,12.745,111.686,20.55,111.686,25.876z M98.204,25.913c0,9.616,1.603,12.724,3.717,12.724
				c2.186,0,3.789-3.107,3.789-12.724c0-8.211-1.604-11.318-3.789-11.318C99.807,14.595,98.204,17.702,98.204,25.913z"/>
			<path d="M117.587,15.408c0-0.443-0.219-0.739-0.655-1.035l-1.822-1.073c-0.146-0.111-0.51-0.222-0.51-0.37
				c0-0.074,0.146-0.185,0.437-0.185h8.745c0.511,0,0.729,0.259,0.875,0.629l6.704,15.905h0.146V15.408
				c0-0.443-0.146-0.739-0.655-0.999L128.81,13.3c-0.146-0.111-0.51-0.222-0.51-0.37c0-0.074,0.146-0.185,0.438-0.185h9.619
				c0.292,0,0.438,0.111,0.438,0.185c0,0.148-0.292,0.259-0.51,0.37l-1.822,1.073c-0.438,0.296-0.656,0.592-0.656,1.035v24.671
				c0,0.259-0.218,0.407-0.729,0.407h-3.061c-0.656,0-1.239-0.37-1.458-0.925l-8.526-20.158h-0.146v18.419
				c0,0.444,0.219,0.74,0.729,0.999l1.968,1.11c0.219,0.111,0.511,0.222,0.511,0.37c0,0.074-0.146,0.185-0.438,0.185h-9.62
				c-0.291,0-0.437-0.111-0.437-0.185c0-0.148,0.364-0.259,0.51-0.37l1.822-1.073c0.437-0.296,0.655-0.592,0.655-1.036V15.408z"/>
		</g>
	</g>
</g>
</svg>
